# xmcd
#
# Track frame offsets:
#	150
#	18985
#	41862
#	62260
#	73140
#	91012
#	109336
#	122981
#	140231
#	157865
#
# Disc length: 2463 seconds
# Revision: 0
# Processed by: cddbd v1.5.2PL0 Copyright (c) Steve Scherf et al.
# Submitted via: dBpowerAMP V12.0
#
DISCID=88099d0a
DTITLE=Matt Ross - Matt Ross
DYEAR=2014
DGENRE=Blues Americana
TTITLE0=Anyday With You
TTITLE1=River Song 
TTITLE2=Hustle From The Heart 
TTITLE3=One In a Million 
TTITLE4=Can't You Hear Me Callin' 
TTITLE5=Stranger In Paradise
TTITLE6=White Flowers
TTITLE7=Tell Riley 
TTITLE8=Steal Me Away
TTITLE9=Malted Milk
EXTD=
EXTT0=
EXTT1=
EXTT2=
EXTT3=
EXTT4=
EXTT5=
EXTT6=
EXTT7=
EXTT8=
EXTT9=
PLAYORDER=
